<mxfile host="app.diagrams.net" modified="2023-09-20T15:57:32.817Z" agent="Mozilla/5.0 (Windows NT 10.0; Win64; x64) AppleWebKit/537.36 (KHTML, like Gecko) Chrome/116.0.0.0 Safari/537.36" etag="vlZcBPKB2Y3hCor5WYEj" version="21.7.5" type="device">
  <diagram name="Page-1" id="0MnJkUDoqILVkGzhKLJc">
    <mxGraphModel dx="1302" dy="718" grid="1" gridSize="10" guides="1" tooltips="1" connect="1" arrows="1" fold="1" page="1" pageScale="1" pageWidth="850" pageHeight="1100" math="0" shadow="0">
      <root>
        <mxCell id="0" />
        <mxCell id="1" parent="0" />
        <mxCell id="BaO7w00lRAGlLX_KNnrc-6" value="" style="rounded=0;whiteSpace=wrap;html=1;fillColor=#d5e8d4;strokeColor=#82b366;" vertex="1" parent="1">
          <mxGeometry x="370" y="140" width="250" height="70" as="geometry" />
        </mxCell>
        <mxCell id="BaO7w00lRAGlLX_KNnrc-1" value="Actor" style="shape=umlActor;verticalLabelPosition=bottom;verticalAlign=top;html=1;outlineConnect=0;" vertex="1" parent="1">
          <mxGeometry x="90" y="240" width="30" height="60" as="geometry" />
        </mxCell>
        <mxCell id="BaO7w00lRAGlLX_KNnrc-2" value="chrome" style="ellipse;whiteSpace=wrap;html=1;aspect=fixed;" vertex="1" parent="1">
          <mxGeometry x="140" y="230" width="80" height="80" as="geometry" />
        </mxCell>
        <mxCell id="BaO7w00lRAGlLX_KNnrc-3" value="" style="shape=flexArrow;endArrow=classic;html=1;rounded=0;" edge="1" parent="1">
          <mxGeometry width="50" height="50" relative="1" as="geometry">
            <mxPoint x="240" y="260" as="sourcePoint" />
            <mxPoint x="350" y="260" as="targetPoint" />
            <Array as="points">
              <mxPoint x="300" y="260" />
            </Array>
          </mxGeometry>
        </mxCell>
        <mxCell id="BaO7w00lRAGlLX_KNnrc-4" value="url" style="text;html=1;strokeColor=none;fillColor=none;align=center;verticalAlign=middle;whiteSpace=wrap;rounded=0;" vertex="1" parent="1">
          <mxGeometry x="425" y="210" width="60" height="30" as="geometry" />
        </mxCell>
        <UserObject label="https://trello.com/c/8xDmN8Hh/1-homepage" link="https://trello.com/c/8xDmN8Hh/1-homepage" id="BaO7w00lRAGlLX_KNnrc-5">
          <mxCell style="text;whiteSpace=wrap;" vertex="1" parent="1">
            <mxGeometry x="380" y="250" width="270" height="40" as="geometry" />
          </mxCell>
        </UserObject>
        <mxCell id="BaO7w00lRAGlLX_KNnrc-7" value="backend" style="text;html=1;strokeColor=none;fillColor=none;align=center;verticalAlign=middle;whiteSpace=wrap;rounded=0;" vertex="1" parent="1">
          <mxGeometry x="660" y="10" width="60" height="30" as="geometry" />
        </mxCell>
        <mxCell id="BaO7w00lRAGlLX_KNnrc-9" value="" style="shape=flexArrow;endArrow=classic;html=1;rounded=0;" edge="1" parent="1">
          <mxGeometry width="50" height="50" relative="1" as="geometry">
            <mxPoint x="650" y="250" as="sourcePoint" />
            <mxPoint x="760" y="240" as="targetPoint" />
          </mxGeometry>
        </mxCell>
        <mxCell id="BaO7w00lRAGlLX_KNnrc-10" value="VIEW (def)" style="shape=cube;whiteSpace=wrap;html=1;boundedLbl=1;backgroundOutline=1;darkOpacity=0.05;darkOpacity2=0.1;fillColor=#ffe6cc;strokeColor=#d79b00;" vertex="1" parent="1">
          <mxGeometry x="800" y="190" width="120" height="80" as="geometry" />
        </mxCell>
        <mxCell id="BaO7w00lRAGlLX_KNnrc-11" value="" style="shape=flexArrow;endArrow=classic;html=1;rounded=0;" edge="1" parent="1">
          <mxGeometry width="50" height="50" relative="1" as="geometry">
            <mxPoint x="940" y="200" as="sourcePoint" />
            <mxPoint x="1070" y="120" as="targetPoint" />
          </mxGeometry>
        </mxCell>
        <mxCell id="BaO7w00lRAGlLX_KNnrc-12" value="MODEL" style="shape=cylinder3;whiteSpace=wrap;html=1;boundedLbl=1;backgroundOutline=1;size=15;fillColor=#f8cecc;strokeColor=#b85450;" vertex="1" parent="1">
          <mxGeometry x="1080" y="90" width="60" height="80" as="geometry" />
        </mxCell>
        <mxCell id="BaO7w00lRAGlLX_KNnrc-13" value="TEMPLATE" style="shape=note;whiteSpace=wrap;html=1;backgroundOutline=1;darkOpacity=0.05;fillColor=#e1d5e7;strokeColor=#9673a6;" vertex="1" parent="1">
          <mxGeometry x="1080" y="240" width="80" height="100" as="geometry" />
        </mxCell>
        <mxCell id="BaO7w00lRAGlLX_KNnrc-14" value="" style="shape=flexArrow;endArrow=classic;html=1;rounded=0;" edge="1" parent="1">
          <mxGeometry width="50" height="50" relative="1" as="geometry">
            <mxPoint x="940" y="250" as="sourcePoint" />
            <mxPoint x="1060" y="290" as="targetPoint" />
          </mxGeometry>
        </mxCell>
        <mxCell id="BaO7w00lRAGlLX_KNnrc-15" value="optional" style="text;html=1;strokeColor=none;fillColor=none;align=center;verticalAlign=middle;whiteSpace=wrap;rounded=0;" vertex="1" parent="1">
          <mxGeometry x="920" y="120" width="60" height="30" as="geometry" />
        </mxCell>
        <mxCell id="BaO7w00lRAGlLX_KNnrc-17" value="optional" style="text;html=1;strokeColor=none;fillColor=none;align=center;verticalAlign=middle;whiteSpace=wrap;rounded=0;" vertex="1" parent="1">
          <mxGeometry x="950" y="290" width="60" height="30" as="geometry" />
        </mxCell>
        <mxCell id="BaO7w00lRAGlLX_KNnrc-18" value="" style="shape=flexArrow;endArrow=classic;html=1;rounded=0;" edge="1" parent="1">
          <mxGeometry width="50" height="50" relative="1" as="geometry">
            <mxPoint x="820" y="300" as="sourcePoint" />
            <mxPoint x="210" y="320" as="targetPoint" />
            <Array as="points">
              <mxPoint x="550" y="460" />
            </Array>
          </mxGeometry>
        </mxCell>
      </root>
    </mxGraphModel>
  </diagram>
</mxfile>
